<?xml version="1.0" encoding="utf-8"?>
<svg viewBox="0 0 448 512" xmlns="http://www.w3.org/2000/svg">
    <g transform="matrix(2.046846, 0, 0, 2.046846, -79.136322, -37.55373)" style="">
        <path d="M46,64.2v31c0.2,0,0.4,0,0.6,0c84.4,0,153.2,68,153.9,151.8h30.1C229.8,146.3,147.4,64.5,46,64.2z" fill="#FFFFFF" style=""/>
        <path fill="#FFFFFF" d="M46,128.2v31c0.2,0,0.4,0,0.6,0c48.9,0,88.8,39.3,89.5,87.8h30.1C165.5,181.6,111.9,128.5,46,128.2z" style=""/>
        <path fill="#FFFFFF" d="M248.8,166.8v-62.5c-7.7-10.5-17.2-22.5-26.7-31.8c-10.6-10.5-23-20-35-28.3h-66.4 C178.9,65.1,225.6,110,248.8,166.8z" style=""/>
        <path d="M46.5,159.2c-0.2,0-0.4,0-0.6,0v77.6c0,5.6,4.6,10.2,10.2,10.2H136C135.3,198.5,95.5,159.2,46.5,159.2z" style=""/>
        <path d="M46.5,95.2c-0.2,0-0.4,0-0.6,0v33c65.9,0.3,119.5,53.3,120.2,118.8h34.2C199.7,163.2,131,95.2,46.5,95.2z" style=""/>
        <path d="M248.8,236.9v-70.1c-23.2-56.8-69.9-101.7-128-122.6H56.1c-5.6,0-10.2,4.6-10.2,10.2v9.9 c101.4,0.3,183.9,82,184.5,182.8h8.2C244.3,247,248.8,242.5,248.8,236.9z" style=""/>
        <path d="M222.1,72.5c9.4,9.4,19,21.3,26.7,31.8v-50c0-5.6-4.5-10.1-10.1-10.1h-51.5C199.2,52.5,211.6,62,222.1,72.5 z" style=""/>
    </g>
</svg>
